<?xml version="1.0" encoding="UTF-8" standalone="no"?>
<!-- Created with Inkscape (http://www.inkscape.org/) -->

<svg
   xmlns:dc="http://purl.org/dc/elements/1.1/"
   xmlns:cc="http://creativecommons.org/ns#"
   xmlns:rdf="http://www.w3.org/1999/02/22-rdf-syntax-ns#"
   xmlns:svg="http://www.w3.org/2000/svg"
   xmlns="http://www.w3.org/2000/svg"
   xmlns:sodipodi="http://sodipodi.sourceforge.net/DTD/sodipodi-0.dtd"
   xmlns:inkscape="http://www.inkscape.org/namespaces/inkscape"
   width="180mm"
   height="180mm"
   viewBox="0 0 637.79528 637.79527"
   id="svg5804"
   version="1.1"
   inkscape:version="0.91 r13725"
   sodipodi:docname="spaceapps_2016_logo.svg">
  <defs
     id="defs5806" />
  <sodipodi:namedview
     id="base"
     pagecolor="#ffffff"
     bordercolor="#666666"
     borderopacity="1.0"
     inkscape:pageopacity="0.0"
     inkscape:pageshadow="2"
     inkscape:zoom="0.7"
     inkscape:cx="401.54176"
     inkscape:cy="337.24956"
     inkscape:document-units="px"
     inkscape:current-layer="layer1"
     showgrid="false"
     inkscape:window-width="1440"
     inkscape:window-height="897"
     inkscape:window-x="-8"
     inkscape:window-y="-8"
     inkscape:window-maximized="1" />
  <metadata
     id="metadata5809">
    <rdf:RDF>
      <cc:Work
         rdf:about="">
        <dc:format>image/svg+xml</dc:format>
        <dc:type
           rdf:resource="http://purl.org/dc/dcmitype/StillImage" />
        <dc:title></dc:title>
      </cc:Work>
    </rdf:RDF>
  </metadata>
  <g
     inkscape:label="Ebene 1"
     inkscape:groupmode="layer"
     id="layer1"
     transform="translate(0,-414.56693)">
    <g
       id="g6373"
       transform="matrix(1.0018679,0,0,1.0018679,-55.885781,394.55076)">
      <path
         sodipodi:nodetypes="csscssscscccccsscccsscccsscsssccccscsssssccscsscccccccsssccccccccsssccccssscccsscscsssccccsssscsssssscccssccsssssscscccccsssssssssssccssssssssscssccssssssssssssssssssssscsssccssssscccssssscccs"
         inkscape:connector-curvature="0"
         id="path4825-2-7"
         d="m 250.50541,498.4652 c -3.2351,-1.9728 -6.40127,-8.2064 -6.40127,-12.603 0,-4.4544 3.07199,-10.3814 6.46893,-12.4808 4.30517,-2.6607 10.80019,-2.634 15.16304,0.062 3.72743,2.3037 4.04878,3.1086 1.93986,4.8588 -1.1136,0.9242 -2.09381,0.8411 -4.45034,-0.3775 -7.14115,-3.6929 -13.12149,-0.075 -13.12149,7.9371 0,7.9128 5.97979,11.6303 12.92825,8.0371 2.58225,-1.3353 2.97978,-1.2962 4.55889,0.4487 1.65974,1.834 1.59363,1.9947 -1.62859,3.9592 -4.30395,2.6239 -11.29614,2.6954 -15.45728,0.158 z m 25.59873,-12.603 0,-14.5 2.4501,0 c 2.28128,0 2.47076,0.3962 2.75,5.75 l 0.2999,5.75 6.25,0.2977 6.25,0.2977 0,-6.0477 c 0,-5.7842 0.10892,-6.0477 2.5,-6.0477 l 2.5,0 0,14.5 0,14.5 -2.4501,0 c -2.28128,0 -2.47076,-0.3962 -2.75,-5.75 l -0.2999,-5.75 -5.40535,-0.3076 c -6.35519,-0.3617 -7.05768,0.3386 -7.07934,7.0576 -0.0142,4.3959 -0.20167,4.75 -2.51531,4.75 l -2.5,0 z m 30.98918,13.75 c -0.0164,-1.138 12.25454,-28.3396 12.61964,-27.9745 0.17496,0.175 3.23427,6.7095 6.79847,14.5213 l 6.48035,14.2032 -2.91814,0 c -2.23096,0 -3.28346,-0.7064 -4.4695,-3 -1.37103,-2.6513 -2.06848,-3 -6,-3 -3.93152,0 -4.62897,0.3487 -6,3 -1.08959,2.107 -2.28785,3 -4.02568,3 -1.36088,0 -2.47919,-0.3375 -2.48514,-0.75 z m 14.99717,-10 c -0.0452,-2.4811 -1.41799,-5.25 -2.60298,-5.25 -0.76085,0 -1.38951,0.3375 -1.39702,0.75 -0.008,0.4125 -0.285,1.7625 -0.61664,3 -0.51285,1.9137 -0.21188,2.25 2.01366,2.25 1.43915,0 2.61049,-0.3375 2.60298,-0.75 z m 18.01365,-3.8164 0,-14.5664 2.75,0.3164 2.75,0.3164 0.28174,11.75 0.28173,11.75 4.96827,0 c 4.63281,0 4.96826,0.1688 4.96826,2.5 0,2.4583 -0.13333,2.5 -8,2.5 l -8,0 z m 25,0.066 0,-14.5 2.5,0 2.5,0 0,12 0,12 5.5,0 c 5.2,0 5.5,0.1363 5.5,2.5 0,2.4583 -0.13333,2.5 -8,2.5 l -8,0 z m 24,0 0,-14.5 9.5,0 c 9.41951,0 9.5,0.021 9.5,2.4543 0,2.3341 -0.33049,2.4688 -6.75,2.75 l -6.75,0.2957 -0.31336,3.25 -0.31336,3.25 5.56336,0 c 5.23591,0 5.56336,0.1441 5.56336,2.4477 0,2.2478 -0.42888,2.4725 -5.25,2.75 -5.11969,0.2948 -5.25778,0.383 -5.56336,3.5523 l -0.31336,3.25 7.06336,0 c 6.86758,0 7.06336,0.069 7.06336,2.5 0,2.4912 -0.0333,2.5 -9.5,2.5 l -9.5,0 z m 27,-0.081 0,-14.5807 8.23839,7.5807 c 4.53111,4.1694 8.58111,7.5807 9,7.5807 0.41888,0 0.76161,-3.375 0.76161,-7.5 0,-7.3334 0.0556,-7.5 2.5,-7.5 l 2.5,0 0,14 c 0,7.7 -0.34957,14 -0.77682,14 -0.42725,0 -3.90268,-3.15 -7.72318,-7 -3.8205,-3.85 -7.52093,-7 -8.22318,-7 -0.92226,0 -1.27682,2.0826 -1.27682,7.5 0,7.3333 -0.0556,7.5 -2.5,7.5 l -2.5,0 z m 37.97251,12.8765 c -3.48122,-2.3993 -4.78677,-4.2513 -5.97657,-8.478 -2.59962,-9.2351 3.78569,-18.8178 12.53903,-18.8178 7.54735,0 12.76359,3.8475 9.2122,6.7949 -0.88421,0.7338 -1.82315,0.6227 -3.19113,-0.3776 -2.81385,-2.0575 -8.20089,-1.7724 -10.5306,0.5573 -4.06995,4.0699 -3.81771,12.805 0.45052,15.6016 3.50995,2.2998 8.93804,1.5294 9.34359,-1.3262 0.26025,-1.8325 -0.15726,-2.25 -2.25,-2.25 -2.07419,0 -2.56955,-0.482 -2.56955,-2.5 0,-2.3636 0.3,-2.5 5.5,-2.5 l 5.5,0 0,5.5147 c 0,5.1486 -0.21577,5.6463 -3.25,7.4963 -4.07452,2.4842 -11.382,2.6251 -14.77749,0.2849 z m 26.02749,-12.7958 0,-14.5 9.5,0 c 9.46667,0 9.5,0.01 9.5,2.5 0,2.4095 -0.2346,2.5 -6.48095,2.5 -6.03882,0 -6.52278,0.1667 -7.09414,2.4432 -0.91841,3.6592 0.19137,4.5568 5.63411,4.5568 4.60371,0 4.94098,0.1707 4.94098,2.5 0,2.3321 -0.3346,2.5 -4.98095,2.5 -4.44812,0 -5.04654,0.2614 -5.59414,2.4432 -0.95643,3.8107 0.21166,4.5568 7.13411,4.5568 6.20371,0 6.44098,0.092 6.44098,2.5 0,2.4912 -0.0333,2.5 -9.5,2.5 l -9.5,0 z M 348.24516,251.54669 c 1.84947,-4.99429 12.44671,-28.18449 12.87949,-28.18449 0.53887,0 12.97949,27.24768 12.97949,28.42792 0,0.31464 -1.11344,0.57208 -2.47432,0.57208 -1.73783,0 -2.93609,-0.89296 -4.02568,-3 -1.4048,-2.71659 -2.01613,-3 -6.47111,-3 -4.38229,0 -5.06308,0.30043 -6.23171,2.75 -0.89499,1.87599 -2.21826,2.85391 -4.16355,3.07694 -1.56837,0.17981 -2.69005,-0.10929 -2.49261,-0.64245 z m 14.66015,-10.04044 c 1.03978,-0.65954 1.05776,-1.35956 0.0895,-3.48469 -1.50938,-3.31275 -2.67038,-3.38517 -3.46574,-0.2162 -0.94962,3.7836 0.58823,5.46932 3.37626,3.70089 z m 21.49806,9.74993 c -3.93237,-1.13723 -4.60088,-2.09919 -2.98987,-4.30238 1.10745,-1.51453 1.76865,-1.56306 5.97339,-0.43846 4.19767,1.1227 4.92193,1.07076 6.45573,-0.46305 2.35389,-2.35389 0.74904,-4.74519 -4.4929,-6.69462 -7.23211,-2.68956 -9.77599,-6.84372 -7.6244,-12.45067 1.10367,-2.87611 6.14653,-4.75845 10.71951,-4.00125 6.3325,1.04855 7.90457,2.12967 6.61112,4.5465 -0.65333,1.22075 -1.73485,1.81011 -2.76271,1.5055 -5.03208,-1.49128 -6.84717,-1.56902 -8.49353,-0.36376 -2.78873,2.04156 -1.0957,4.47457 4.37903,6.29299 15.99529,5.31278 8.50685,21.07793 -7.77537,16.3692 z m 22.70077,0.50499 c 0,-1.26548 12.33102,-28.39828 12.90025,-28.38532 0.47,0.0107 11.36872,23.67143 12.95873,28.13294 0.20301,0.56965 -0.87996,0.86524 -2.49261,0.68035 -1.94529,-0.22303 -3.26856,-1.20095 -4.16355,-3.07694 -1.16863,-2.44957 -1.84942,-2.75 -6.23171,-2.75 -4.45498,0 -5.06631,0.28341 -6.47111,3 -1.08959,2.10704 -2.28785,3 -4.02568,3 -1.36088,0 -2.47432,-0.27046 -2.47432,-0.60103 z m 14.53513,-10.45581 c 0.8105,-1.31141 -0.27564,-5.94316 -1.39367,-5.94316 -0.45124,0 -1.36569,1.19671 -2.03211,2.65936 -0.96828,2.12513 -0.9503,2.82515 0.0895,3.48469 1.74778,1.10861 2.5571,1.05988 3.3363,-0.20089 z M 317.10414,237.3622 c 0,-7.7 0.30343,-14 0.67429,-14 0.37086,0 3.9229,3.15 7.89342,7 3.97052,3.85 7.71709,7 8.32571,7 0.70338,0 1.10658,-2.55053 1.10658,-7 l 0,-7 3,0 3,0 0,14 c 0,7.7 -0.34876,14 -0.77503,14 -0.42626,0 -4.1275,-3.375 -8.22497,-7.5 -4.09747,-4.125 -7.79871,-7.5 -8.22497,-7.5 -0.42627,0 -0.77503,3.375 -0.77503,7.5 l 0,7.5 -3,0 -3,0 z"
         style="fill:#ff0000" />
      <path
         sodipodi:nodetypes="ssscssssssssssssscccscccssscssssscccssssssssscscccssscccsssscssssscccssccccsscccsssssssssssccccsssssscccccssssccccccscsscccsscssscsssssscccscsscscccsscccccccccccccccccccccccccccsssssssssscccsscssssssscscssssscccscssscscsccssscssscccccccsscssccssssscsssssscssssscscsssssssssssssssssssssssscssssscsssssssssssss"
         inkscape:connector-curvature="0"
         id="path4825-2"
         d="m 350.81335,622.36608 c -36.88308,-4.3897 -63.54384,-12.0729 -93.38016,-26.9109 -41.67749,-20.7266 -77.53367,-52.2986 -103.2834,-90.9426 -10.51048,-15.7737 -12.5684,-19.9029 -10.91322,-21.8973 2.07403,-2.499 3.85719,-1.8977 6.39767,2.1575 19.36118,30.905 32.26699,46.8437 52.65832,65.033 32.33065,28.8394 70.39707,49.1034 111.02079,59.1 39.09734,9.6211 82.69981,9.6858 121.55451,0.1803 34.9513,-8.5506 71.89144,-26.7525 100.23604,-49.3905 23.37523,-18.669 47.80693,-46.9783 62.99365,-72.9915 1.69516,-2.9036 2.76691,-3.7423 4.47259,-3.5 5.22604,0.7424 2.25315,7.4325 -12.56575,28.2775 -43.33973,60.9638 -110.3089,100.7924 -185.03037,110.0431 -10.91217,1.3509 -45.38021,1.8864 -54.16067,0.8414 z M 106.03457,443.60258 c -5.50927,-1.4817 -9.018784,-4.4129 -12.068554,-10.0798 -2.00825,-3.7316 -2.15268,-5.4089 -2.15268,-24.99998 l 0,-20.99999 6.13947,-0.29485 6.139474,-0.29485 0.36317,18.34289 c 0.30841,15.5775 0.63457,18.75698 2.16342,21.09028 2.54523,3.8846 5.92243,5.2001 10.46712,4.0773 6.13055,-1.5145 7.22503,-4.989 7.22022,-22.92078 -0.002,-8.25 -0.4617,-16.64777 -1.02108,-18.66171 -0.71593,-2.5776 -4.73134,-7.61078 -13.56239,-17 -6.89994,-7.33606 -13.752264,-15.36328 -15.227374,-17.83828 l -2.68203,-4.5 0,-22.5 c 0,-21.28788 0.11885,-22.72218 2.20615,-26.62421 4.19885,-7.8494 10.630684,-11.36464 20.793854,-11.36464 7.46229,0 12.53476,1.788 16.59239,5.84866 4.87972,4.88335 5.90761,10.22314 5.90761,30.68941 l 0,16.45078 -6.43415,0 -6.43415,0 -0.31585,-16.89795 c -0.27622,-14.77762 -0.54845,-17.1546 -2.16954,-18.94332 -4.0933,-4.51656 -12.40525,-3.45936 -15.19347,1.93246 -2.1839,4.2232 -2.06183,32.82321 0.16008,37.50553 0.88711,1.86944 7.11936,9.21524 13.84946,16.324 6.73009,7.10876 13.01334,14.56202 13.96277,16.56279 2.81314,5.92825 3.82169,15.90748 3.3831,33.47468 -0.46213,18.51028 -1.75436,23.29428 -7.62685,28.23568 -5.2506,4.4181 -15.3989,5.8229 -24.46017,3.3859 z m 182.61853,0.046 c -6.20997,-2.0324 -9.90103,-5.0972 -12.50392,-10.3825 l -2.33583,-4.7431 0,-61.49997 0,-61.5 2.57119,-5 c 6.39231,-12.43062 26.54881,-15.60727 36.41682,-5.73926 5.1675,5.1675 5.84283,8.23244 6.28842,28.53943 l 0.41253,18.80017 -6.34448,-0.30017 -6.34448,-0.30017 -0.51516,-16.5 c -0.28334,-9.075 -0.88563,-17.26573 -1.33843,-18.20163 -1.06659,-2.20456 -6.74319,-4.06317 -9.95089,-3.25809 -1.37823,0.34592 -3.56103,1.75186 -4.85069,3.12432 l -2.34483,2.49538 -0.30288,55.67001 c -0.20742,38.1227 0.0411,56.85018 0.78839,59.41418 1.12883,3.873 4.93421,6.7558 8.91778,6.7558 2.85626,0 6.84997,-1.9937 7.78307,-3.8854 0.43801,-0.888 1.02527,-10.16458 1.30501,-20.61458 l 0.50863,-18.99999 6.25,-0.29772 6.25,-0.29771 -0.0245,18.79772 c -0.0134,10.3387 -0.48554,20.82268 -1.04911,23.29768 -1.41451,6.212 -5.04357,11.3532 -9.51027,13.4728 -4.89532,2.3229 -14.76865,2.8899 -20.07642,1.1528 z m 335.77573,-0.1267 c -2.41149,-0.752 -5.91132,-2.8471 -7.77741,-4.6558 -5.35487,-5.1902 -6.33807,-10.2356 -6.33807,-32.52458 l 0,-19.31849 6.42058,0 6.42058,0 0.35868,18.24999 c 0.24965,12.702 0.76923,19.06548 1.70914,20.93238 2.82585,5.613 12.44668,6.2584 15.84859,1.0632 1.48923,-2.2743 1.74243,-5.2101 1.74243,-20.20328 0,-14.88859 -0.26746,-18.0317 -1.76805,-20.77753 -0.97242,-1.77938 -6.99759,-8.75438 -13.38926,-15.5 -17.91005,-18.90186 -16.78232,-16.21255 -17.16504,-40.93358 -0.38549,-24.89995 0.49677,-29.49743 6.74358,-35.14105 4.55471,-4.11491 9.33766,-5.69459 17.07877,-5.64066 9.84564,0.0686 15.42539,3.08417 19.33669,10.45053 1.90785,3.59316 2.16067,5.95793 2.48561,23.25 l 0.36175,19.25 -6.59203,0 -6.59202,0 -0.002,-15.25 c -10e-4,-12.51527 -0.3151,-15.87764 -1.75,-18.75 -3.17268,-6.35099 -12.74206,-6.35099 -15.95444,0 -1.81571,3.5897 -1.76682,32.93264 0.0622,37.30999 0.74589,1.78516 6.89707,9.08273 13.6693,16.21683 17.26482,18.18736 17.34144,18.38082 17.41615,43.97317 0.0682,23.35228 -0.80796,27.86638 -6.51662,33.57498 -5.58188,5.5819 -16.23879,7.4085 -25.80951,4.4239 z m -470.11549,-76.45318 0,-76.04569 15.75001,0.01 c 14.54127,0.009 16.14797,0.19506 20.93563,2.42417 10.62589,4.94736 12.65165,11.77101 12.12508,40.8424 -0.3415,18.85399 -0.52698,20.55113 -2.73868,25.05885 -3.97332,8.0979 -11.98309,11.66458 -26.19589,11.66458 l -5.85088,0 -0.26263,35.74999 -0.26263,35.74998 -6.75,0.2957 -6.75001,0.2957 z m 31.74654,-13.33522 2.75347,-2.75101 0.31152,-18.44896 c 0.42745,-25.31544 -0.76626,-27.5105 -14.96074,-27.5105 l -5.85078,0 0,26.1093 0,26.1093 7.49653,-0.37856 c 6.58043,-0.33229 7.83301,-0.71474 10.25,-3.12957 z m 20.92374,88.565 c -0.27718,-0.4485 1.42959,-14.9814 3.79282,-32.29548 2.36322,-17.314 5.74858,-42.27999 7.52301,-55.47999 1.77443,-13.2 4.41697,-32.775 5.87232,-43.5 l 2.64608,-19.5 8.24775,-0.29044 c 4.70806,-0.1658 8.24775,0.1145 8.24775,0.6531 0,0.51895 1.34236,11.22465 2.98303,23.79044 1.64067,12.5658 4.36688,33.6469 6.05825,46.8469 1.69137,13.2 4.37703,34.12499 5.96814,46.49999 1.59111,12.375 3.19447,25.10928 3.56303,28.29848 l 0.6701,5.7984 -6.87127,-0.2984 -6.87128,-0.2985 -1.6744,-11.5 c -0.92092,-6.325 -1.70842,-11.83748 -1.75,-12.24998 -0.0416,-0.4125 -5.01703,-0.75 -11.05655,-0.75 -12.68971,0 -11.12157,-1.7195 -13.22327,14.49998 l -1.29578,10 -6.16289,0.2955 c -3.38959,0.1625 -6.38967,-0.072 -6.66684,-0.52 z m 35.95569,-38.74308 c 0.54069,-1.4091 -7.39673,-70.61886 -8.19153,-71.42552 -0.21305,-0.21622 -0.57947,0.23378 -0.81429,1 -1.03791,3.38682 -8.72413,69.17972 -8.23177,70.46282 0.80115,2.0878 16.4351,2.0539 17.23759,-0.037 z m 92.37404,-36.51168 0,-76.02071 20,0 20,0 0,6.97012 0,6.97013 -12.75,0.27987 -12.75,0.27988 -0.2666,26.25 -0.26661,26.25 9.01661,0 9.0166,0 0,6.96107 0,6.96106 -8.75,0.28894 -8.75,0.28893 -0.26552,28.22089 -0.26553,28.22078 13.26553,0.2792 13.26552,0.2791 0,6.5 0,6.5 -20.25,0.2707 -20.25,0.2707 z m 81.00092,73.22926 c 5.1e-4,-1.5125 2.45473,-20.74998 5.45382,-42.74998 2.9991,-21.99999 7.28552,-53.72499 9.52538,-70.49999 2.23987,-16.775 4.3214,-31.7375 4.62564,-33.25 0.54695,-2.71916 0.64109,-2.75 8.39424,-2.75 7.75047,0 7.84761,0.0318 8.40531,2.75 0.31033,1.5125 2.38726,17.15 4.6154,34.75 3.81825,30.16019 5.42489,42.75824 11.47929,90.01219 3.43847,26.83698 3.81574,24.48778 -3.93261,24.48778 -7.52367,0 -6.91105,1.0104 -8.64026,-14.25 l -1.21812,-10.74998 -11.23946,0 -11.23947,0 -1.14881,8.24998 c -0.63185,4.5375 -1.40971,10.1625 -1.72859,12.5 l -0.57977,4.25 -6.38645,0 c -6.3006,0 -6.38645,-0.037 -6.38554,-2.75 z M 452.62714,404.273 c 0.2375,-0.4125 -1.30566,-15.14999 -3.42924,-32.74999 -4.71517,-39.0786 -4.94246,-40.77542 -5.40064,-40.31724 -0.74418,0.74418 -9.47613,72.02083 -8.93114,72.90263 0.67477,1.0918 17.13932,1.2444 17.76102,0.1646 z m 33.14622,37.49998 c -0.26247,-0.6875 -0.36085,-34.77498 -0.21862,-75.74997 l 0.25861,-74.5 14.79295,-0.27698 c 17.89487,-0.33506 21.71744,0.52421 27.33863,6.1454 6.13632,6.13632 6.84851,9.62823 6.85925,33.63158 0.0105,23.47769 -1.05553,28.6546 -6.96994,33.84751 -4.37962,3.84536 -8.67408,5.17809 -19.29303,5.98735 l -8.72786,0.66514 -0.26263,35.74999 -0.26263,35.74998 -6.51876,0 c -4.29381,0 -6.68163,-0.4266 -6.99597,-1.25 z m 31.44593,-87.16485 c 3.22432,-2.91797 4.08291,-7.87763 4.08291,-23.58512 0,-22.94259 -1.38821,-25.5 -13.84188,-25.5 l -7.64697,0 -0.2683,24.48111 c -0.14757,13.46461 -0.0304,25.10106 0.26035,25.85878 0.84037,2.18994 14.71199,1.19042 17.41389,-1.25477 z m 32.09406,12.33059 0,-76.08429 16.75,0.33429 c 16.18004,0.32291 16.90911,0.42782 21.4258,3.08296 3.62713,2.13221 5.3092,4.03856 7.5,8.5 l 2.8242,5.75133 0,22 c 0,18.64267 -0.26977,22.69892 -1.76775,26.57992 -3.48233,9.02206 -10.10449,12.79027 -24.22619,13.78542 l -9.00606,0.63466 -0.26263,35.74999 -0.26263,35.74998 -6.48737,0 -6.48737,0 z m 29,-11.19436 c 4.99754,-2.49712 5.99689,-6.61678 5.99689,-24.72135 0,-23.14094 -1.82714,-26.27909 -14.99689,-25.75745 l -6.5,0.25745 -0.2683,24.48111 c -0.14757,13.46461 -0.0492,25.05211 0.21861,25.75 0.64408,1.67843 12.18556,1.67119 15.54969,-0.01 z M 130.98001,248.35614 c -1.54272,-1.54272 -0.32368,-5.25078 5.65435,-17.19928 23.93112,-47.83203 60.47453,-86.99647 105.98618,-113.58792 74.17685,-43.339893 166.37777,-47.116753 244.4019,-10.01153 7.26499,3.45494 17.09742,8.63039 21.84984,11.50098 l 8.64076,5.21927 2.54932,-2.54932 c 1.4528,-1.4528 9.53667,-17.95982 18.79432,-38.377433 14.67623,-32.36819 16.47251,-35.82811 18.60084,-35.82811 1.77893,0 2.41763,0.61221 2.60818,2.5 0.15166,1.50255 -5.29835,14.669 -13.65974,33 -7.65165,16.775 -13.74869,30.666523 -13.54898,30.870043 0.19971,0.20352 1.8466,0.0899 3.65974,-0.25242 2.81363,-0.53126 5.19168,-3.03959 16.23088,-17.120043 9.75837,-12.44676 13.47658,-16.49758 15.14301,-16.49758 2.35065,0 3.87929,2.41464 2.74769,4.34025 -0.37485,0.63786 -5.39554,7.16541 -11.15709,14.50565 -8.16393,10.400883 -10.16577,13.542033 -9.07171,14.234693 0.77212,0.48883 2.04148,0.89568 2.8208,0.9041 0.77933,0.008 4.20343,1.54695 7.60913,3.41895 l 6.19216,3.40364 14.39088,-14.4324 c 14.91012,-14.953143 18.05258,-16.867363 18.67351,-11.374883 0.23088,2.04231 -2.28639,5.060593 -13.75,16.486603 -7.71795,7.69263 -14.03263,14.35401 -14.03263,14.80306 0,0.44904 1.10122,2.43703 2.44715,4.41775 1.34593,1.98072 3.006,5.78184 3.68905,8.44695 0.68304,2.6651 1.64109,4.84564 2.12898,4.84564 0.4879,0 6.89357,-4.95 14.23482,-11 7.34125,-6.05 14.04116,-11 14.88868,-11 2.3147,0 3.79877,3.38088 2.32257,5.29106 -0.66619,0.86204 -7.96125,7.03691 -16.21125,13.72193 -8.25,6.68502 -15.3671,12.80482 -15.81578,13.59956 -0.44868,0.79473 -0.67368,2.25147 -0.5,3.23721 0.26691,1.51491 5.02221,-0.41574 30.72971,-12.47621 24.08933,-11.30132 30.79574,-14.06411 32.25,-13.28582 1.92315,1.02924 2.31045,2.65958 1.07076,4.50728 -0.40408,0.60225 -15.91728,8.20022 -34.47377,16.88437 -18.55649,8.68417 -34.23409,16.38584 -34.83911,17.11485 -0.848,1.02177 0.84051,3.79764 7.36973,12.11562 4.65836,5.93459 11.54735,15.50226 15.30886,21.2615 7.77936,11.91097 21.3996,37.98874 21.3996,40.9724 0,2.64626 -3.38579,4.50127 -4.89551,2.68216 -0.60804,-0.73264 -3.51666,-6.23568 -6.46362,-12.22898 -8.98505,-18.27315 -23.45474,-40.54332 -35.01866,-53.89692 l -3.46392,-4 -2.82914,1.80963 c -7.31448,4.67863 -11.86407,6.13236 -20.32915,6.4958 -6.88311,0.29551 -9.59314,-0.0452 -14.24666,-1.79085 -11.39802,-4.27581 -20.67075,-15.87251 -22.56192,-28.21649 -1.08517,-7.08314 0.13942,-16.56612 2.81708,-21.81476 l 2.0317,-3.98247 -5.35333,-3.42448 c -26.29321,-16.81956 -61.75108,-29.610453 -97.68687,-35.239053 -14.43533,-2.261 -54.66754,-2.54461 -68.5,-0.48289 -59.72353,8.90178 -109.86588,33.923443 -150.5,75.101373 -20.24794,20.51893 -35.5928,42.11689 -49.10679,69.11809 -5.07527,10.14049 -7.45789,13.9261 -8.76492,13.9261 -0.98723,0 -2.09497,-0.3 -2.46163,-0.66667 z M 555.8237,176.12126 c 5.67583,-2.51069 11.24728,-8.32736 14.24213,-14.86896 3.38313,-7.38976 2.94014,-18.68263 -0.99428,-25.3463 -14.83831,-25.13138 -51.19857,-17.18203 -53.51696,11.70028 -1.12561,14.02263 8.26105,26.90166 22.25876,30.54031 4.30166,1.1182 13.15442,0.12267 18.01035,-2.02533 z"
         style="fill:#000000" />
    </g>
  </g>
</svg>
